<?xml version="1.0" standalone="no"?>
<!DOCTYPE svg PUBLIC "-//W3C//DTD SVG 20010904//EN"
 "http://www.w3.org/TR/2001/REC-SVG-20010904/DTD/svg10.dtd">
<svg version="1.0" xmlns="http://www.w3.org/2000/svg"
 width="72.000000pt" height="72.000000pt" viewBox="0 0 72.000000 72.000000"
 preserveAspectRatio="xMidYMid meet">
<metadata>
Created by potrace 1.14, written by Peter Selinger 2001-2017
</metadata>
<g transform="translate(0.000000,72.000000) scale(0.100000,-0.100000)"
fill="#000000" stroke="none">
<path d="M265 706 c-157 -51 -257 -177 -262 -329 -5 -154 67 -273 207 -340 57
-28 75 -32 150 -32 74 0 94 4 150 31 278 131 276 522 -4 650 -69 32 -179 41
-241 20z m54 -165 c23 -10 39 -27 51 -54 29 -65 17 -95 -84 -200 -39 -41 -50
-47 -86 -47 -22 0 -40 4 -40 8 0 4 15 23 34 42 l33 34 -25 20 c-78 61 -52 187
43 208 27 6 35 5 74 -11z m218 -93 c5 -7 9 -71 9 -143 l-1 -130 -40 0 c-36 0
-40 3 -43 28 -3 26 -5 27 -67 27 -35 0 -67 4 -70 10 -6 9 33 57 139 168 54 56
59 58 73 40z"/>
</g>
</svg>
